<svg xmlns="http://www.w3.org/2000/svg" viewBox="0 0 850 1000"><path d="M 70 80 C170 260,-70 320,200 460 S580 560,670 950" fill="none" stroke="#aab1a1" stroke-width="1" /><path d="M 87 80 C189 260,-49 320,220 460 S599 560,688 950" fill="none" stroke="#aab1a1" stroke-width="1" /><path d="M 104 80 C208 260,-28 320,240 460 S618 560,706 950" fill="none" stroke="#aab1a1" stroke-width="1" /><path d="M 121 80 C227 260,-7 320,260 460 S637 560,724 950" fill="none" stroke="#aab1a1" stroke-width="1" /><path d="M 138 80 C246 260,14 320,280 460 S656 560,742 950" fill="none" stroke="#aab1a1" stroke-width="1" /><path d="M 155 80 C265 260,35 320,300 460 S675 560,760 950" fill="none" stroke="#aab1a1" stroke-width="1" /><path d="M 172 80 C284 260,56 320,320 460 S694 560,778 950" fill="none" stroke="#aab1a1" stroke-width="1" /><path d="M 189 80 C303 260,77 320,340 460 S713 560,796 950" fill="none" stroke="#aab1a1" stroke-width="1" /><path d="M 206 80 C322 260,98 320,360 460 S732 560,814 950" fill="none" stroke="#aab1a1" stroke-width="1" /><path d="M 223 80 C341 260,119 320,380 460 S751 560,832 950" fill="none" stroke="#aab1a1" stroke-width="1" /><path d="M 240 80 C360 260,140 320,400 460 S770 560,850 950" fill="none" stroke="#aab1a1" stroke-width="1" /><path d="M 257 80 C379 260,161 320,420 460 S789 560,868 950" fill="none" stroke="#aab1a1" stroke-width="1" /><path d="M 274 80 C398 260,182 320,440 460 S808 560,886 950" fill="none" stroke="#aab1a1" stroke-width="1" /></svg>
